<svg xmlns="http://www.w3.org/2000/svg" xmlns:xlink="http://www.w3.org/1999/xlink" version="1.1" id="Layer_1" x="0px" y="0px" width="100%" viewBox="-3 -3 518 518" enable-background="new 0 0 512 512" xml:space="preserve"><g id="deeditor_bgCarrier" stroke-width="0">
    <rect id="dee_c_e" x="-3" y="-3" width="518" height="518" rx="0" fill="#ffffff" strokewidth="0"/>
  </g>
<path fill="#000000" opacity="1.000000" stroke="none" d=" M513.000000,205.000000   C513.000000,244.687561 513.000000,284.375122 512.787842,324.794312   C509.939117,330.442749 505.780273,332.553406 500.266693,332.422913   C495.605896,332.312592 490.936157,332.530029 486.278076,332.373657   C482.440430,332.244812 480.668732,333.585541 480.153931,337.686707   C477.131134,361.767303 470.778473,384.929810 460.151459,406.824493   C445.349243,437.321259 424.737885,462.621582 395.050201,479.905731   C363.402954,498.330719 328.672821,504.882446 292.730103,506.114624   C268.105377,506.958771 243.514694,505.537811 219.164703,501.352112   C192.859558,496.830322 167.139084,490.394836 143.102264,478.321594   C117.937004,465.681549 96.635551,448.630798 80.894470,424.985504   C66.336655,403.117645 58.112759,378.889252 53.771347,353.202118   C52.258591,344.251434 52.444225,344.229462 43.210644,343.307861   C42.226051,343.209625 41.248047,342.965607 40.288406,342.709076   C24.482319,338.483582 14.127592,328.161133 7.657551,313.501129   C3.788007,304.733398 2.401841,295.364899 1.000000,286.000000   C1.000000,282.969391 1.000000,279.938812 1.041412,276.070251   C2.751143,269.994507 2.871240,264.463318 4.395326,259.155823   C10.625907,237.458313 24.092117,226.177536 46.380482,224.659271   C49.702080,224.433014 51.198517,222.879242 51.572159,219.813492   C52.880627,209.077408 55.062180,198.505127 57.624073,188.010056   C66.262436,152.622162 81.298668,120.387436 106.425301,93.679016   C141.054169,56.870155 184.673325,38.157585 234.332199,32.723915   C259.611664,29.957832 284.991943,30.765955 309.817230,36.067112   C358.870789,46.541943 400.029449,70.575752 431.151825,110.514206   C449.438202,133.980576 461.660828,160.404602 468.495819,189.333206   C470.174377,196.437576 470.315552,196.610245 477.878204,196.622574   C485.211334,196.634537 492.552216,196.838715 499.875275,196.568497   C506.383118,196.328339 510.777649,198.836380 513.000000,205.000000  M95.511192,250.453201   C92.345100,250.455627 89.176270,250.541214 86.013695,250.436951   C82.887260,250.333878 80.813484,251.313705 79.276848,254.364731   C76.110596,260.651367 68.919273,261.401428 63.954422,256.267395   C62.564888,254.830505 61.281132,253.289017 59.860577,251.884796   C49.043049,241.191803 34.167439,242.971146 27.467552,256.610931   C18.341423,275.190125 18.684101,293.951324 29.891167,311.782623   C34.912842,319.772552 42.372555,324.057129 52.137489,323.650818   C55.131680,323.526245 58.138153,323.558136 61.134571,323.655182   C67.046585,323.846619 70.463333,326.860718 71.308472,332.600281   C72.348114,339.660767 73.113617,346.768219 74.365997,353.789673   C82.290436,398.218201 104.322716,433.136230 144.076874,455.726929   C180.297714,476.309784 220.385239,482.630005 261.052734,485.383850   C283.763123,486.921661 306.608307,485.965118 329.198090,481.711548   C366.448547,474.697388 398.691376,459.025482 422.538086,428.658051   C443.311401,402.204498 454.473846,371.691406 459.621399,338.751862   C460.567322,332.698914 460.263733,332.406830 453.771576,332.403778   C419.610657,332.387726 385.449707,332.391968 351.288788,332.391876   C342.631866,332.391876 342.816467,332.407013 342.314728,341.190247   C341.821442,349.825928 337.663910,356.453217 329.842987,360.282776   C321.031372,364.597443 311.853088,365.126221 302.948944,360.715729   C298.946991,358.733429 298.428864,354.623566 299.919189,350.673859   C301.356354,346.865021 304.699890,345.803467 308.483215,346.121490   C310.130219,346.259888 311.740875,346.795471 313.377350,347.100800   C318.534821,348.063110 323.855927,345.374908 325.206299,341.148071   C327.050110,335.376770 324.983704,330.168030 319.765533,327.653961   C318.123566,326.862915 316.280792,326.461395 314.698364,325.579407   C311.008850,323.522919 309.778381,320.199951 310.797485,316.222565   C311.797363,312.320160 314.589417,310.646179 318.591064,310.565704   C322.432526,310.488464 325.701141,311.957947 328.969788,313.688599   C330.489868,314.493469 331.756226,316.208160 333.725189,315.536560   C334.710876,314.647003 334.620483,313.608948 334.621582,312.625824   C334.635895,299.628052 334.553436,286.629395 334.691315,273.633057   C334.729034,270.078918 332.967682,268.577057 329.901550,267.705719   C319.932892,264.872742 310.000671,264.450592 299.849670,267.035400   C295.609863,268.114960 294.199127,270.178406 294.243958,274.354858   C294.399689,288.850769 294.339355,303.349426 294.300720,317.846863   C294.272888,328.289764 290.164642,332.400085 279.780273,332.403992   C243.286407,332.417694 206.792526,332.402252 170.298660,332.402435   C156.634293,332.402496 142.969772,332.458282 129.305649,332.404358   C122.103973,332.375946 118.599304,329.448425 117.264961,322.389496   C116.866722,320.282806 116.797447,318.090332 116.792427,315.936615   C116.747726,296.773285 116.756401,277.609863 116.738106,258.446442   C116.730698,250.688843 116.524269,250.482559 109.004776,250.457184   C104.838852,250.443130 100.672852,250.453583 95.511192,250.453201  M192.499817,196.632690   C221.827652,196.631577 251.155502,196.627090 280.483337,196.631241   C290.303192,196.632629 294.265747,200.611206 294.312256,210.608475   C294.355621,219.939865 294.289795,229.271729 294.324768,238.603180   C294.344696,243.917572 295.012238,244.500458 300.133301,243.290207   C309.856293,240.992386 319.564514,241.338943 329.230408,243.415298   C333.043732,244.234467 334.794342,243.530212 334.703552,239.173416   C334.495209,229.179733 334.629272,219.178452 334.659302,209.180374   C334.687286,199.864166 337.936432,196.637589 347.295593,196.634521   C379.123077,196.624069 410.950592,196.642990 442.778076,196.616943   C448.503784,196.612259 449.269684,195.610199 448.014526,190.078842   C445.422485,178.656265 441.420227,167.680145 436.130859,157.293701   C400.840088,87.994957 342.520874,55.237965 266.437042,51.513020   C245.238708,50.475185 224.269470,53.659149 203.818085,59.378880   C155.434860,72.910423 118.101212,100.530479 94.859299,145.799194   C82.416908,170.033432 75.271469,195.885605 71.609322,222.790756   C71.117432,226.404556 72.653503,227.701874 75.991272,227.691269   C87.822197,227.653687 99.653542,227.581207 111.483963,227.651245   C115.402077,227.674454 116.825142,225.834076 116.732849,222.120697   C116.616959,217.457977 116.599503,212.786331 116.746178,208.125031   C117.001129,200.022720 120.490448,196.651520 128.511368,196.642776   C149.507492,196.619873 170.503647,196.633377 192.499817,196.632690  M360.368835,219.669327   C357.852936,220.861847 358.213043,223.189148 358.209473,225.314545   C358.165314,251.631821 358.197357,277.949432 358.063873,304.266174   C358.042847,308.411224 359.698608,309.838989 363.710602,309.828430   C404.186127,309.721802 444.661896,309.686554 485.137543,309.722565   C489.275360,309.726227 490.678650,307.963135 490.665588,303.980255   C490.579193,277.662994 490.582306,251.345123 490.665527,225.027802   C490.678131,221.042969 489.252777,219.303162 485.113098,219.314117   C443.805786,219.423370 402.498169,219.428848 360.368835,219.669327  M270.820984,289.499237   C270.810303,268.174652 270.749298,246.849854 270.834106,225.525650   C270.849884,221.554092 269.958832,219.298126 265.313049,219.309952   C225.329544,219.411835 185.345657,219.386200 145.361984,219.323181   C141.783875,219.317551 140.219818,220.639999 140.225281,224.303101   C140.265045,250.958725 140.241119,277.614594 140.156784,304.270111   C140.145126,307.956482 141.395599,309.813538 145.356598,309.803131   C185.506546,309.697693 225.656723,309.649261 265.806824,309.660004   C269.514099,309.661011 270.879333,307.974030 270.825928,304.492493   C270.754425,299.828949 270.816803,295.163391 270.820984,289.499237  z"/>
<path fill="#000000" opacity="1.000000" stroke="none" d=" M271.901123,413.268768   C270.879486,412.642487 270.069855,412.299713 269.499176,411.721252   C264.152466,406.301575 258.791229,404.782898 251.627213,409.308380   C246.696442,412.423157 241.270279,410.127258 239.281662,405.808929   C237.216537,401.324463 239.105637,396.817780 244.676559,394.096985   C251.289139,390.867462 255.361588,385.953003 256.767151,378.651764   C257.694733,373.833496 260.809540,371.624359 265.233124,372.003571   C269.723511,372.388489 272.289795,375.445312 272.355194,380.572540   C272.374237,382.066193 272.669495,383.755798 272.099670,385.023621   C269.360931,391.116943 272.728607,394.242401 277.378754,397.085236   C291.013824,405.420868 305.369873,406.886200 320.483490,401.949493   C323.003662,401.126312 325.518829,400.155121 328.114594,399.726471   C332.204865,399.050995 335.391083,400.672821 336.833740,404.684357   C338.231140,408.570038 337.136353,411.948914 333.776703,414.376099   C327.789246,418.701752 320.747772,420.308044 313.660431,421.171295   C299.105225,422.944153 285.141022,420.814148 271.901123,413.268768  z"/>
<path fill="#000000" opacity="1.000000" stroke="none" d=" M41.789421,276.156006   C41.102657,275.647247 40.681469,275.375580 40.297520,275.058777   C35.748966,271.305786 34.425335,267.600708 36.515228,264.498749   C38.644974,261.337646 44.383961,260.760895 48.697884,263.990753   C58.493439,271.324707 65.695663,280.813019 70.024857,292.280243   C71.404991,295.936005 70.930473,299.710327 66.810928,301.658386   C62.741383,303.582794 59.841656,301.650269 57.516613,298.293945   C53.766464,292.880371 53.083649,292.916565 49.134682,298.491394   C48.271748,299.709625 47.532665,301.074005 46.458389,302.071503   C44.417835,303.966248 41.856499,304.016052 39.444401,303.027069   C37.177700,302.097687 36.591206,299.999878 36.622734,297.660706   C36.685963,292.969788 39.273041,289.561920 42.263554,286.357483   C47.179176,281.090240 47.190144,281.100464 41.789421,276.156006  z"/>
<path fill="#000000" opacity="1.000000" stroke="none" d=" M155.517456,163.932343   C161.840454,152.422073 171.771240,145.602737 182.937485,140.406738   C207.827209,128.824707 238.820068,134.493546 257.184387,153.788147   C264.303284,161.267670 261.985962,171.235992 252.589813,173.795303   C249.415634,174.659882 246.615936,173.901230 244.107346,172.108994   C241.678986,170.374069 239.485458,168.313477 237.155884,166.436752   C219.020157,151.826263 192.115143,154.472153 177.096512,172.388489   C174.348083,175.667206 171.548569,178.452759 166.783264,178.428680   C158.423080,178.386398 153.734650,172.713150 155.517456,163.932343  z"/>
<path fill="#000000" opacity="1.000000" stroke="none" d=" M358.388123,176.103073   C348.497223,172.691513 345.802521,164.497467 352.285370,156.933395   C373.003052,132.760147 409.386017,134.563644 427.392029,155.011658   C430.012970,157.988083 431.911072,161.173462 431.356659,165.354233   C430.795654,169.584686 428.968353,172.957672 424.928467,174.757629   C420.922638,176.542374 417.139984,176.108398 413.734619,173.257217   C412.331757,172.082642 410.963989,170.863464 409.620728,169.620850   C397.868774,158.749207 382.327820,158.963943 370.833130,170.324890   C367.421509,173.696762 364.039001,176.757172 358.388123,176.103073  z"/>
<path fill="#000000" opacity="1.000000" stroke="none" d=" M428.849487,287.916748   C417.473267,296.441467 405.531281,297.577026 393.376831,291.230347   C381.811554,285.191254 376.758820,274.744507 376.727264,262.019409   C376.691864,247.735794 387.490295,235.521912 402.032440,232.693069   C416.786652,229.822998 429.961304,236.020615 436.800781,249.048813   C443.486237,261.783508 440.519165,276.741913 428.849487,287.916748  z"/>
<path fill="#000000" opacity="1.000000" stroke="none" d=" M184.073837,248.320877   C190.924637,237.035248 204.693390,229.956055 215.831451,231.921768   C229.961884,234.415619 239.624863,242.191940 242.717178,256.507751   C245.345718,268.676514 241.950958,279.365112 232.231201,287.439270   C222.033493,295.910431 210.367950,297.263977 198.545288,291.832520   C187.039032,286.546448 180.834198,277.125061 180.601089,264.118622   C180.503464,258.671661 181.537140,253.540085 184.073837,248.320877  z"/>
</svg>