<svg version="1.1" id="Layer_1" xmlns="http://www.w3.org/2000/svg" xmlns:xlink="http://www.w3.org/1999/xlink" x="0px" y="0px"
	 width="100%" viewBox="0 0 1024 1024" enable-background="new 0 0 1024 1024" xml:space="preserve">
<path fill="#000000" opacity="1.000000" stroke="none" 
	d="
M1.000000,554.464661 
	C2.455611,551.630920 2.517125,548.996338 2.721863,546.309204 
	C4.971200,516.788086 14.019938,489.983398 35.675770,468.867157 
	C47.321903,457.511200 61.098774,449.974670 77.956673,448.649689 
	C84.241753,448.155762 90.288284,446.508240 96.620377,448.556793 
	C99.150307,449.375305 100.482254,447.277618 100.862000,444.822754 
	C102.484947,434.331665 103.664574,423.745361 105.880508,413.380798 
	C107.746880,404.651215 109.359032,395.854980 111.204643,387.125702 
	C113.221031,377.588684 115.705711,368.162323 118.139709,358.771667 
	C121.498535,345.812958 125.888901,333.072021 130.599548,320.523926 
	C139.486374,296.851318 150.071320,273.947510 162.841553,252.058838 
	C181.016205,220.906784 203.158081,192.851181 229.481918,168.329376 
	C259.140991,140.700653 292.621796,118.540001 329.559235,101.612648 
	C348.753357,92.816544 368.272766,84.920586 388.656708,79.493813 
	C398.215515,76.948997 407.872772,74.604767 417.566315,72.461113 
	C431.947693,69.280777 446.502258,67.333885 461.002686,65.224380 
	C470.146912,63.894081 479.527618,63.120140 488.809784,62.843555 
	C510.786285,62.188713 532.810730,61.536274 554.755676,62.933884 
	C565.135986,63.594975 575.568909,64.599312 585.942749,66.071983 
	C593.114807,67.090149 600.367615,68.007339 607.531860,69.106194 
	C617.132385,70.578712 626.682678,72.721382 636.040466,75.341064 
	C646.391479,78.238770 656.787170,80.999878 666.988098,84.496971 
	C684.748169,90.585503 702.048096,97.681122 718.883972,105.972023 
	C749.461670,121.030182 778.146057,139.040390 803.949951,161.354996 
	C840.668579,193.108383 871.090454,230.073959 894.340149,272.778412 
	C910.285522,302.066406 922.554077,332.833191 931.230225,365.059937 
	C933.086853,371.956177 934.748718,378.893188 936.062134,385.875153 
	C936.984802,390.780060 939.293274,391.901794 943.883789,391.844971 
	C963.047180,391.607605 982.223206,392.039856 1001.377380,391.551422 
	C1012.026306,391.279907 1023.615295,400.201233 1023.535828,413.822632 
	C1023.096252,489.150970 1023.338989,564.483276 1023.338013,639.814209 
	C1023.337891,652.816589 1014.724487,661.734009 1001.623718,661.945679 
	C989.294067,662.144958 976.956787,662.129517 964.627197,661.933228 
	C960.256409,661.863586 958.291260,663.400635 957.865234,667.820984 
	C956.146484,685.655457 953.073914,703.304077 948.973572,720.717834 
	C942.089417,749.954407 932.786804,778.402954 919.987549,805.666382 
	C910.501770,825.871887 899.903870,845.451599 887.011597,863.656616 
	C868.073181,890.399414 846.535461,914.888550 820.459534,934.941406 
	C792.314148,956.585693 761.145203,972.678955 727.634277,984.479004 
	C708.471863,991.226624 688.874939,996.160583 669.055420,1000.236206 
	C662.469482,1001.590576 655.621094,1002.320496 648.993103,1003.437622 
	C630.777161,1006.507935 612.329529,1006.368530 594.084229,1008.670593 
	C587.841125,1009.458374 581.441711,1009.078003 575.113159,1009.102051 
	C563.113708,1009.147766 551.113647,1009.155457 539.114502,1009.076660 
	C524.636108,1008.981628 510.226929,1007.341553 495.779755,1006.609924 
	C482.461121,1005.935486 469.062775,1004.414612 455.776886,1002.749146 
	C442.132599,1001.038757 428.652100,998.034851 415.088593,995.661987 
	C407.409424,994.318542 399.795868,992.702332 392.179260,991.033020 
	C380.382874,988.447510 368.757629,985.247620 357.188995,981.874512 
	C340.323853,976.956970 323.724121,971.269531 307.545349,964.310120 
	C290.106689,956.808838 273.145111,948.465027 256.969604,938.521912 
	C230.423096,922.203857 206.180756,902.984009 185.474701,879.688782 
	C165.144760,856.816650 148.797195,831.253052 136.076706,803.315491 
	C129.186874,788.183472 123.156242,772.750427 118.470024,756.870422 
	C115.725555,747.570374 113.008980,738.177307 111.553436,728.474670 
	C110.281334,719.994751 108.148247,711.638184 106.249245,703.260315 
	C105.153252,698.425232 106.241638,693.336609 103.941460,688.566772 
	C102.931999,686.473511 102.044090,685.272400 99.831635,685.013733 
	C98.346428,684.840149 96.871223,684.388977 95.391548,684.388977 
	C76.074722,684.388733 59.406803,677.125977 44.661858,665.281128 
	C26.437807,650.641541 15.070615,631.421265 8.730905,609.091125 
	C5.425932,597.450134 2.363636,585.770447 2.538048,573.505432 
	C2.560685,571.913452 1.712288,570.309082 1.133679,568.355225 
	C1.000000,563.643127 1.000000,559.286194 1.000000,554.464661 
M418.500000,662.179016 
	C364.675842,662.161438 310.849274,661.856323 257.029022,662.305115 
	C241.296646,662.436279 232.681381,652.371399 232.863846,637.843750 
	C233.091919,619.683167 232.892883,601.517151 232.878662,583.353516 
	C232.858032,557.024536 232.802963,530.695496 232.856995,504.366638 
	C232.864624,500.653076 232.052979,498.227051 227.697525,498.235443 
	C205.868088,498.277466 184.038498,498.233917 162.208954,498.218750 
	C159.565811,498.216919 157.925079,499.120605 157.366028,502.076721 
	C156.099304,508.774780 152.392670,513.779358 145.603653,515.518127 
	C138.137299,517.430420 131.468735,516.044006 126.305702,509.607727 
	C123.187202,505.720184 119.877350,501.916809 116.222946,498.541809 
	C106.087204,489.180908 93.875145,484.975220 80.383896,487.606384 
	C66.420059,490.329742 57.147583,499.747192 50.657722,512.151794 
	C41.668041,529.334534 39.768932,547.708313 40.093376,566.781128 
	C40.427349,586.414246 45.023743,604.648499 55.768429,620.981567 
	C66.451576,637.221069 81.352173,646.683472 101.473724,646.723755 
	C108.807098,646.738403 116.081070,645.174194 123.424858,646.093079 
	C131.512939,647.104919 138.047363,653.172546 139.162460,660.566345 
	C141.258224,674.462524 142.576004,688.452698 144.886002,702.339844 
	C146.710602,713.308838 149.224228,724.101868 151.975082,734.785950 
	C155.558136,748.702271 160.328369,762.316650 165.838516,775.659546 
	C173.224640,793.545044 182.084366,810.675598 192.914474,826.627686 
	C205.661453,845.403198 220.938751,861.940857 238.147919,876.970520 
	C272.374023,906.862000 311.983551,926.458679 354.672546,940.499207 
	C367.659943,944.770752 380.941132,948.155762 394.232880,951.477478 
	C405.286438,954.239807 416.464813,956.350830 427.582031,958.724731 
	C437.745850,960.895142 448.248718,961.441040 458.462982,963.420959 
	C472.825989,966.205200 487.409058,967.088440 501.879272,968.669861 
	C519.226318,970.565613 536.818909,970.497498 554.255981,970.554565 
	C582.315491,970.646423 610.394287,969.630066 638.293030,965.409851 
	C651.397705,963.427551 664.467102,961.234619 677.344910,958.346313 
	C692.185425,955.017761 706.691345,950.285095 721.001465,944.921143 
	C750.534485,933.850952 777.786316,918.939087 802.191284,898.899841 
	C827.417175,878.186523 848.206482,853.636902 865.153992,825.819885 
	C884.359375,794.296814 898.508362,760.682617 908.059875,724.948425 
	C912.852661,707.017456 916.011353,688.864502 919.312256,670.686523 
	C920.624146,663.462280 919.712463,662.150269 913.300720,662.143494 
	C838.146606,662.064148 762.992371,662.027100 687.838440,661.878357 
	C683.588806,661.869995 681.958191,663.135376 682.005127,667.606079 
	C682.088318,675.514709 682.739319,683.390686 679.979736,691.256409 
	C673.749268,709.015808 660.854309,718.957092 643.281311,722.937012 
	C634.063110,725.024841 624.382202,723.987976 614.966675,722.928833 
	C611.420349,722.529968 607.813904,721.265320 604.717346,719.245605 
	C599.820496,716.051575 596.646973,711.458252 597.078979,705.583862 
	C597.492249,699.965149 599.861145,694.773376 605.547119,692.426575 
	C611.364990,690.025330 617.451721,691.008362 623.102722,692.991760 
	C629.714539,695.312500 642.574463,691.891418 646.592163,686.888367 
	C651.290894,681.037231 652.242126,669.344055 648.922791,662.346924 
	C645.134155,654.360291 638.100647,651.503906 630.415100,649.397095 
	C621.724243,647.014771 617.161682,637.587891 620.634155,629.343567 
	C624.587341,619.957764 633.144531,618.112915 642.348145,620.594849 
	C650.139099,622.695862 657.100708,626.568420 663.292358,631.794250 
	C664.394531,632.724426 665.549805,634.127930 667.214417,633.386475 
	C669.125183,632.535461 668.713989,630.573547 668.715088,628.974304 
	C668.734741,600.145996 668.720215,571.317688 668.698303,542.489380 
	C668.697510,541.493652 668.596985,540.490173 668.451111,539.503906 
	C668.033936,536.684875 666.935120,534.815674 663.738708,533.909851 
	C658.173157,532.332581 652.595459,530.925598 646.962891,529.590149 
	C627.929138,525.077209 609.406006,527.125427 590.998291,532.728149 
	C586.777893,534.012695 585.102844,536.315491 585.133423,541.018311 
	C585.347351,573.844788 585.238281,606.673340 585.230164,639.501221 
	C585.229614,641.827759 585.165222,644.078796 584.224121,646.342346 
	C579.400269,657.944702 573.297241,662.140991 560.476807,662.150269 
	C513.484558,662.184326 466.492279,662.172913 418.500000,662.179016 
M186.207718,289.625671 
	C180.256012,301.133667 175.293015,313.086578 170.391586,325.060394 
	C164.409912,339.673126 159.650177,354.716339 155.289886,369.872955 
	C152.498032,379.577667 149.981033,389.375366 147.758835,399.225647 
	C145.937225,407.300232 144.622498,415.496033 143.288849,423.671692 
	C142.172379,430.515930 141.717957,437.484222 140.312820,444.261261 
	C138.458893,453.202850 139.132782,454.396271 148.376083,454.763367 
	C149.041809,454.789795 149.709167,454.800751 150.375229,454.788849 
	C175.853119,454.333344 201.345078,455.659607 226.821640,454.027161 
	C231.342072,453.737488 232.972412,452.338074 232.890640,447.816345 
	C232.673737,435.822540 232.744324,423.822113 232.810638,411.824951 
	C232.876892,399.842773 240.926758,391.774994 252.821350,391.701324 
	C262.652405,391.640442 272.484009,391.665405 282.315369,391.663757 
	C375.796783,391.648254 469.278229,391.630280 562.759644,391.646973 
	C565.385132,391.647461 567.966797,391.624603 570.617859,392.512421 
	C579.627441,395.529694 585.552979,405.620453 585.402954,414.605652 
	C585.027466,437.095001 585.246460,459.594635 585.270264,482.090088 
	C585.276001,487.482330 586.548157,488.499054 590.837158,487.285248 
	C603.830017,483.608154 617.179016,482.423462 630.602661,482.115845 
	C635.233765,482.009766 639.645325,484.292511 644.410583,483.906128 
	C650.494812,483.412750 656.195923,485.631104 661.953430,487.007111 
	C667.845398,488.415161 668.713257,488.171722 668.716797,482.078644 
	C668.730835,458.250153 668.703735,434.421692 668.721191,410.593201 
	C668.722900,408.282715 668.630615,405.986938 669.750671,403.763733 
	C673.702454,395.920135 679.882751,391.653259 688.758484,391.655487 
	C733.416260,391.666687 778.074097,391.720978 822.731873,391.728699 
	C845.727295,391.732635 868.723083,391.591003 891.717712,391.708618 
	C896.155029,391.731293 898.006165,390.240845 896.994202,385.847137 
	C895.549072,379.573334 894.409790,373.194763 892.457886,367.078613 
	C887.021484,350.043732 881.143066,333.169617 873.558105,316.919586 
	C857.114502,281.690887 836.323547,249.450562 809.541138,221.095581 
	C788.063965,198.357330 764.550110,178.153061 738.204834,161.279312 
	C708.355225,142.161118 676.323486,127.789337 642.413879,117.588699 
	C629.892639,113.822067 617.317566,110.281578 604.358582,108.145485 
	C594.717651,106.556320 585.029968,105.279488 575.411743,103.731667 
	C563.583252,101.828148 551.673462,101.478806 539.842468,100.484619 
	C520.290588,98.841629 500.674652,100.888161 481.097595,102.107956 
	C472.819092,102.623787 464.599548,103.827667 456.453339,104.901894 
	C444.028992,106.540291 431.665771,109.076981 419.391785,112.017715 
	C398.345886,117.060112 377.760620,123.377785 357.838989,131.738785 
	C327.165588,144.612259 298.704620,161.225998 272.758453,182.200882 
	C250.598053,200.115356 231.115875,220.466522 214.294617,243.417542 
	C203.746002,257.810150 194.699570,273.124146 186.207718,289.625671 
M925.500061,435.413300 
	C891.027283,435.417206 856.554504,435.425446 822.081726,435.423767 
	C788.437744,435.422119 754.793762,435.412781 721.149780,435.401306 
	C712.888184,435.398468 712.874329,435.388519 712.877014,443.681702 
	C712.892944,492.656219 712.926270,541.630737 712.924622,590.605286 
	C712.924438,597.765869 712.911438,604.931885 712.642761,612.085510 
	C712.407837,618.338501 712.582275,618.803650 718.661743,618.802063 
	C803.783386,618.780396 888.905029,618.704041 974.026611,618.768616 
	C978.476929,618.771973 979.754517,617.223938 979.747131,612.950623 
	C979.648254,556.146973 979.685852,499.343048 979.674683,442.539215 
	C979.673401,436.108551 979.072266,435.469330 972.476196,435.444000 
	C957.151001,435.385132 941.825500,435.417999 925.500061,435.413300 
M469.518402,435.426208 
	C439.373688,436.641388 409.220703,435.321350 379.066406,435.744873 
	C347.580719,436.187103 316.080048,435.555542 284.585846,435.407745 
	C277.119843,435.372711 277.066498,435.399109 277.065186,442.845062 
	C277.055267,499.343689 277.123291,555.842407 276.979523,612.340698 
	C276.966522,617.456116 278.700439,618.866089 283.641022,618.858948 
	C347.805603,618.766357 411.970459,618.915100 476.135132,618.846191 
	C495.945312,618.824951 515.754456,618.237793 535.565308,618.122314 
	C540.086182,618.095886 541.116333,616.163025 541.108887,612.032959 
	C541.007446,555.534546 541.040039,499.035858 541.023499,442.537262 
	C541.021545,435.800018 540.646118,435.430756 533.980347,435.425903 
	C512.824585,435.410553 491.668793,435.423676 469.518402,435.426208 
z"/>
<path fill="#000000" opacity="1.000000" stroke="none" 
	d="
M493.362366,818.317871 
	C482.660645,820.021362 473.539703,809.436646 476.208954,799.341980 
	C477.754364,793.497498 481.086639,789.835144 486.633575,787.666443 
	C497.155701,783.552490 505.128906,776.602844 509.526306,765.978394 
	C511.046844,762.304626 512.218567,758.522156 512.719482,754.545654 
	C513.752563,746.344543 519.157715,742.487366 528.880432,742.940735 
	C535.794128,743.263123 541.689697,749.273804 542.203308,756.020569 
	C542.758484,763.313477 540.970276,770.210632 538.927185,777.011414 
	C537.954346,780.249695 538.457947,782.512573 540.823792,784.577209 
	C551.876404,794.223022 564.433716,801.086914 578.620605,804.905029 
	C587.582397,807.316833 596.617981,808.975952 605.985474,808.949707 
	C620.637329,808.908630 634.399048,805.230042 647.852539,799.822388 
	C652.117798,798.108093 656.327698,796.297852 661.296387,798.069885 
	C667.274902,800.201965 670.680176,804.088379 671.626038,810.245483 
	C672.626648,816.758362 670.589783,822.426514 665.204895,825.975037 
	C657.435486,831.094849 648.800293,834.369629 639.637085,836.516724 
	C629.585266,838.872009 619.556702,840.249329 609.205688,840.535889 
	C584.945679,841.207581 562.662659,834.915710 541.660522,823.179016 
	C534.354370,819.096008 528.239502,813.417847 521.500183,808.580566 
	C519.006165,806.790466 517.452026,806.991638 514.938965,808.652100 
	C508.429840,812.953003 501.794708,817.206116 493.362366,818.317871 
z"/>
<path fill="#000000" opacity="1.000000" stroke="none" 
	d="
M100.137512,588.106201 
	C96.695618,591.804749 94.249947,595.749329 91.950455,599.820374 
	C89.547318,604.074951 84.119041,605.681763 78.289803,603.923462 
	C73.711296,602.542480 71.744705,599.349121 71.709579,594.574951 
	C71.641579,585.330505 76.957924,578.730225 82.371696,572.160522 
	C83.526505,570.759155 84.951607,569.563538 86.337349,568.372192 
	C94.667709,561.210571 94.572052,561.322388 86.662674,553.275146 
	C82.777824,549.322571 77.985573,546.563477 73.982819,542.809448 
	C69.775818,538.863831 68.583168,534.076965 70.882027,528.783203 
	C72.841919,524.269958 76.685768,523.113525 81.425934,522.779907 
	C89.015594,522.245911 94.691216,526.075378 99.768379,530.499146 
	C116.826157,545.361816 129.670074,563.354370 138.016647,584.458862 
	C140.160629,589.879944 137.924469,596.842834 133.163818,599.762695 
	C127.024940,603.527832 120.997887,602.861816 116.527039,597.786438 
	C114.319969,595.280945 112.776115,592.339905 111.309875,589.329773 
	C107.463905,581.434265 106.241783,581.308838 100.137512,588.106201 
z"/>
<path fill="#000000" opacity="1.000000" stroke="none" 
	d="
M391.843689,270.627533 
	C405.530670,267.390137 419.098053,266.869385 432.482300,268.242645 
	C455.686432,270.623444 476.983490,278.681488 495.770355,292.847717 
	C502.161346,297.666840 508.537506,302.494019 513.857971,308.527618 
	C519.983215,315.473816 522.111877,323.363831 518.236023,332.041199 
	C514.217529,341.037994 506.297058,345.651978 496.625153,345.065399 
	C490.885193,344.717255 486.135712,342.007996 482.116699,338.039246 
	C473.385071,329.416962 463.647766,322.238861 452.235931,317.604095 
	C444.868073,314.611664 437.314148,311.963745 429.198029,312.197388 
	C425.101105,312.315338 421.519745,309.745148 417.438782,310.282349 
	C402.474609,312.252106 387.651184,314.458710 374.324249,322.530182 
	C363.901825,328.842590 355.182587,336.841614 347.705444,346.332275 
	C341.237488,354.541962 332.587311,355.273682 323.335938,353.159119 
	C315.965729,351.474548 311.552399,345.972351 309.565491,339.262695 
	C306.619751,329.315338 311.067657,321.047180 317.664124,313.887268 
	C337.225739,292.654816 360.686737,277.920990 389.045441,271.452576 
	C389.853638,271.268219 390.632843,270.956665 391.843689,270.627533 
z"/>
<path fill="#000000" opacity="1.000000" stroke="none" 
	d="
M773.420288,320.269531 
	C757.529541,322.715942 745.145020,330.293030 735.014038,342.115967 
	C724.911072,353.906250 704.789001,351.087402 698.740845,336.952179 
	C695.316528,328.949097 696.529236,320.912048 701.990540,313.973602 
	C711.662537,301.685516 724.296570,293.264648 738.270264,286.576447 
	C756.951050,277.635254 776.845154,275.607239 796.721008,278.973053 
	C820.960449,283.077850 841.995972,294.220734 856.817017,314.717102 
	C861.689026,321.454742 861.178040,329.363861 857.738037,336.523560 
	C854.004944,344.293060 846.991577,348.412872 838.500305,348.844757 
	C832.809509,349.134216 828.173950,345.796265 823.986938,341.998199 
	C817.852173,336.433380 812.502686,329.922852 804.720825,326.320923 
	C794.907776,321.778900 784.715088,319.432709 773.420288,320.269531 
z"/>
<path fill="#000000" opacity="1.000000" stroke="none" 
	d="
M858.286621,570.285767 
	C845.903809,580.995789 831.901184,587.476135 815.845520,587.200867 
	C787.259033,586.710754 762.944031,570.772949 754.891907,541.190369 
	C745.406006,506.340027 765.432556,473.640717 798.361938,465.253998 
	C825.369507,458.375549 848.289856,466.055145 865.283142,488.081512 
	C876.552002,502.687988 879.545044,519.804932 876.060791,538.169312 
	C873.653687,550.855896 866.753235,560.719299 858.286621,570.285767 
z"/>
<path fill="#000000" opacity="1.000000" stroke="none" 
	d="
M480.569397,503.546631 
	C484.005554,513.928223 485.679626,523.817871 483.631927,534.639648 
	C480.731476,549.968201 473.402985,562.197937 461.929810,572.249268 
	C440.994629,590.589905 408.152069,590.820923 386.774200,575.888977 
	C367.115479,562.157776 358.395020,542.544983 360.295593,519.061768 
	C362.308868,494.186432 378.124878,473.166443 403.945953,465.717438 
	C430.316315,458.109924 453.206818,464.951080 471.253418,486.172913 
	C475.509766,491.178131 478.109924,497.114960 480.569397,503.546631 
z"/>
</svg>